<svg width="108" height="139" viewBox="0 0 108 139" fill="none" xmlns="http://www.w3.org/2000/svg">
<g filter="url(#filter0_d_1802_5)">
<circle cx="53" cy="38" r="37" fill="#0F3759"/>
</g>
<path d="M40.3592 33.6222L63 19C63.7627 18.4915 64.6942 19.3505 64.249 20.1518L56.4821 34.1322C56.2153 34.6125 56.3859 35.2181 56.8642 35.4885L66.0279 40.668C66.69 41.0422 66.7086 41.9892 66.0617 42.3891L43.3454 56.432C42.4635 56.9771 41.4369 55.9854 41.9513 55.0852L49.511 41.8557C49.7822 41.3811 49.6221 40.7767 49.1515 40.4986L40.393 35.3231C39.753 34.945 39.7347 34.0255 40.3592 33.6222Z" fill="white"/>
<g filter="url(#filter1_d_1802_5)">
<rect x="3" y="101" width="102" height="32" rx="8" fill="#FFA629"/>
</g>
<path d="M17.8874 125.288L13.4954 115.52C13.4234 115.336 13.3434 115.136 13.2554 114.92C13.1754 114.704 13.0994 114.5 13.0274 114.308C13.0434 114.468 13.0554 114.668 13.0634 114.908C13.0714 115.14 13.0754 115.344 13.0754 115.52V125H10.3034V108.2H13.0274L17.5034 118.328C17.5834 118.504 17.6554 118.68 17.7194 118.856C17.7914 119.032 17.8594 119.216 17.9234 119.408C17.9874 119.224 18.0514 119.044 18.1154 118.868C18.1874 118.684 18.2634 118.504 18.3434 118.328L22.8554 108.2H25.4594V125H22.6874V115.52C22.6874 115.328 22.6914 115.112 22.6994 114.872C22.7074 114.624 22.7154 114.432 22.7234 114.296C22.6514 114.472 22.5674 114.676 22.4714 114.908C22.3834 115.14 22.3034 115.344 22.2314 115.52L17.8874 125.288ZM34.4497 125.288C33.2897 125.288 32.2897 125.02 31.4497 124.484C30.6097 123.948 29.9657 123.2 29.5177 122.24C29.0697 121.272 28.8457 120.144 28.8457 118.856C28.8457 117.52 29.0777 116.376 29.5417 115.424C30.0057 114.464 30.6577 113.728 31.4977 113.216C32.3377 112.704 33.3217 112.448 34.4497 112.448C35.4177 112.448 36.2977 112.656 37.0897 113.072C37.8897 113.488 38.5257 114.128 38.9977 114.992C39.4697 115.848 39.7057 116.94 39.7057 118.268C39.7057 118.476 39.7017 118.724 39.6937 119.012C39.6857 119.292 39.6617 119.576 39.6217 119.864H31.5217C31.5697 120.488 31.7177 121.032 31.9657 121.496C32.2217 121.96 32.5617 122.324 32.9857 122.588C33.4097 122.844 33.9097 122.972 34.4857 122.972C35.0457 122.972 35.5417 122.88 35.9737 122.696C36.4057 122.504 36.8177 122.2 37.2097 121.784L38.7697 123.428C38.2657 123.98 37.6497 124.428 36.9217 124.772C36.2017 125.116 35.3777 125.288 34.4497 125.288ZM31.5337 117.692H37.0657C37.0417 117.108 36.9217 116.596 36.7057 116.156C36.4977 115.716 36.2017 115.376 35.8177 115.136C35.4337 114.888 34.9657 114.764 34.4137 114.764C33.6457 114.764 32.9897 115.004 32.4457 115.484C31.9097 115.964 31.6057 116.7 31.5337 117.692ZM47.5383 125.288C45.9623 125.288 44.7263 124.716 43.8303 123.572C42.9343 122.428 42.4863 120.856 42.4863 118.856C42.4863 117.568 42.6943 116.444 43.1103 115.484C43.5343 114.516 44.1223 113.768 44.8743 113.24C45.6343 112.712 46.5263 112.448 47.5503 112.448C48.6863 112.448 49.6263 112.84 50.3703 113.624V108.908L53.0703 107.672V125H50.3703V124.016C49.7143 124.864 48.7703 125.288 47.5383 125.288ZM47.9583 122.732C48.4943 122.732 48.9623 122.624 49.3623 122.408C49.7703 122.192 50.1063 121.876 50.3703 121.46V116.24C50.1063 115.856 49.7583 115.552 49.3263 115.328C48.9023 115.104 48.4463 114.992 47.9583 114.992C47.0783 114.992 46.3943 115.324 45.9063 115.988C45.4263 116.652 45.1863 117.608 45.1863 118.856C45.1863 119.656 45.2983 120.344 45.5223 120.92C45.7463 121.496 46.0663 121.944 46.4823 122.264C46.8983 122.576 47.3903 122.732 47.9583 122.732ZM57.0847 125V108.2H59.8567V115.004H67.2247V108.2H69.9967V125H67.2247V117.632H59.8567V125H57.0847ZM78.2615 125.288C76.8455 125.288 75.7655 124.856 75.0215 123.992C74.2775 123.128 73.9055 121.864 73.9055 120.2V112.736H76.5935V119.672C76.5935 120.712 76.7855 121.484 77.1695 121.988C77.5615 122.484 78.1495 122.732 78.9335 122.732C79.7895 122.732 80.4255 122.484 80.8415 121.988C81.2575 121.484 81.4655 120.728 81.4655 119.72V112.736H84.1655V125H81.4655V123.848C81.0895 124.328 80.6335 124.688 80.0975 124.928C79.5695 125.168 78.9575 125.288 78.2615 125.288ZM93.4422 125.288C92.8662 125.288 92.3582 125.184 91.9182 124.976C91.4862 124.768 91.0742 124.44 90.6822 123.992V125H87.9942V108.908L90.6822 107.672V113.72C91.0182 113.312 91.4262 113 91.9062 112.784C92.3942 112.56 92.9222 112.448 93.4902 112.448C94.5062 112.448 95.3942 112.716 96.1542 113.252C96.9222 113.78 97.5182 114.524 97.9422 115.484C98.3662 116.444 98.5782 117.568 98.5782 118.856C98.5782 120.888 98.1262 122.468 97.2222 123.596C96.3182 124.724 95.0582 125.288 93.4422 125.288ZM93.1062 122.732C93.9862 122.732 94.6622 122.396 95.1342 121.724C95.6142 121.052 95.8542 120.096 95.8542 118.856C95.8542 117.6 95.6182 116.644 95.1462 115.988C94.6742 115.324 93.9942 114.992 93.1062 114.992C92.6182 114.992 92.1502 115.112 91.7022 115.352C91.2622 115.584 90.9222 115.888 90.6822 116.264V121.46C90.9462 121.86 91.2822 122.172 91.6902 122.396C92.0982 122.62 92.5702 122.732 93.1062 122.732Z" fill="#0F3759"/>
<defs>
<filter id="filter0_d_1802_5" x="4" y="0" width="98" height="98" filterUnits="userSpaceOnUse" color-interpolation-filters="sRGB">
<feFlood flood-opacity="0" result="BackgroundImageFix"/>
<feColorMatrix in="SourceAlpha" type="matrix" values="0 0 0 0 0 0 0 0 0 0 0 0 0 0 0 0 0 0 127 0" result="hardAlpha"/>
<feOffset dy="11"/>
<feGaussianBlur stdDeviation="6"/>
<feColorMatrix type="matrix" values="0 0 0 0 0.0352941 0 0 0 0 0.0588235 0 0 0 0 0.278431 0 0 0 0.1 0"/>
<feBlend mode="normal" in2="BackgroundImageFix" result="effect1_dropShadow_1802_5"/>
<feBlend mode="normal" in="SourceGraphic" in2="effect1_dropShadow_1802_5" result="shape"/>
</filter>
<filter id="filter1_d_1802_5" x="0" y="101" width="108" height="38" filterUnits="userSpaceOnUse" color-interpolation-filters="sRGB">
<feFlood flood-opacity="0" result="BackgroundImageFix"/>
<feColorMatrix in="SourceAlpha" type="matrix" values="0 0 0 0 0 0 0 0 0 0 0 0 0 0 0 0 0 0 127 0" result="hardAlpha"/>
<feOffset dy="3"/>
<feGaussianBlur stdDeviation="1.5"/>
<feComposite in2="hardAlpha" operator="out"/>
<feColorMatrix type="matrix" values="0 0 0 0 0 0 0 0 0 0 0 0 0 0 0 0 0 0 0.2 0"/>
<feBlend mode="normal" in2="BackgroundImageFix" result="effect1_dropShadow_1802_5"/>
<feBlend mode="normal" in="SourceGraphic" in2="effect1_dropShadow_1802_5" result="shape"/>
</filter>
</defs>
</svg>
