<svg width="375" height="528" viewBox="0 0 375 528" fill="none" xmlns="http://www.w3.org/2000/svg">
<g opacity="0.16">
<path d="M-678 61.8095C-304.328 -167.29 -264.723 1144.42 558.02 1.1655" stroke="#4157FF" stroke-miterlimit="10" stroke-linecap="round" stroke-linejoin="round"/>
<path d="M-677.016 80.2272C-291.29 -185.109 -241.722 1131.99 561.34 25.1235" stroke="#4157FF" stroke-width="0.9758" stroke-miterlimit="10" stroke-linecap="round" stroke-linejoin="round"/>
<path d="M-676.155 98.6451C-278.253 -203.077 -218.967 1119.41 564.415 49.0817" stroke="#4157FF" stroke-width="0.9516" stroke-miterlimit="10" stroke-linecap="round" stroke-linejoin="round"/>
<path d="M-675.171 117.063C-265.091 -220.896 -195.966 1106.98 567.737 72.89" stroke="#4157FF" stroke-width="0.9274" stroke-miterlimit="10" stroke-linecap="round" stroke-linejoin="round"/>
<path d="M-674.187 135.63C-252.054 -238.565 -172.965 1094.7 570.934 96.9979" stroke="#4157FF" stroke-width="0.9032" stroke-miterlimit="10" stroke-linecap="round" stroke-linejoin="round"/>
<path d="M-673.326 154.048C-239.016 -256.534 -150.21 1082.28 574.01 120.956" stroke="#4157FF" stroke-width="0.879" stroke-miterlimit="10" stroke-linecap="round" stroke-linejoin="round"/>
<path d="M-672.342 172.466C-225.855 -274.353 -127.209 1069.85 577.33 144.914" stroke="#4157FF" stroke-width="0.8548" stroke-miterlimit="10" stroke-linecap="round" stroke-linejoin="round"/>
<path d="M-671.358 191.033C-212.694 -292.172 -104.209 1057.57 580.528 169.022" stroke="#4157FF" stroke-width="0.8306" stroke-miterlimit="10" stroke-linecap="round" stroke-linejoin="round"/>
<path d="M-670.497 209.451C-199.779 -309.991 -81.4535 1045.14 583.604 192.83" stroke="#4157FF" stroke-width="0.8065" stroke-miterlimit="10" stroke-linecap="round" stroke-linejoin="round"/>
<path d="M-669.513 227.869C-186.618 -327.809 -58.4527 1032.71 586.924 216.788" stroke="#4157FF" stroke-width="0.7823" stroke-miterlimit="10" stroke-linecap="round" stroke-linejoin="round"/>
<path d="M-668.529 246.287C-173.457 -345.778 -35.452 1020.13 590.122 240.746" stroke="#4157FF" stroke-width="0.7581" stroke-miterlimit="10" stroke-linecap="round" stroke-linejoin="round"/>
<path d="M-667.668 264.854C-160.542 -363.447 -12.6972 1007.86 593.197 264.854" stroke="#4157FF" stroke-width="0.7339" stroke-miterlimit="10" stroke-linecap="round" stroke-linejoin="round"/>
<path d="M-666.684 283.272C-147.381 -381.266 10.3038 995.427 596.518 288.813" stroke="#4157FF" stroke-width="0.7097" stroke-miterlimit="10" stroke-linecap="round" stroke-linejoin="round"/>
<path d="M-665.7 301.69C-134.22 -399.235 33.3046 982.999 599.716 312.771" stroke="#4157FF" stroke-width="0.6855" stroke-miterlimit="10" stroke-linecap="round" stroke-linejoin="round"/>
<path d="M-664.839 320.258C-121.306 -416.904 56.0594 970.72 602.791 336.729" stroke="#4157FF" stroke-width="0.6613" stroke-miterlimit="10" stroke-linecap="round" stroke-linejoin="round"/>
<path d="M-663.855 338.675C-108.144 -434.723 79.0605 958.292 606.112 360.687" stroke="#4157FF" stroke-width="0.6371" stroke-miterlimit="10" stroke-linecap="round" stroke-linejoin="round"/>
<path d="M-662.871 357.093C-95.1065 -452.691 101.938 945.864 609.31 384.645" stroke="#4157FF" stroke-width="0.6129" stroke-miterlimit="10" stroke-linecap="round" stroke-linejoin="round"/>
<path d="M-662.01 375.511C-82.0688 -470.51 124.816 933.286 612.385 408.603" stroke="#4157FF" stroke-width="0.5887" stroke-miterlimit="10" stroke-linecap="round" stroke-linejoin="round"/>
<path d="M-661.026 394.079C-68.9075 -488.329 147.817 921.007 615.706 432.711" stroke="#4157FF" stroke-width="0.5645" stroke-miterlimit="10" stroke-linecap="round" stroke-linejoin="round"/>
<path d="M-660.042 412.496C-55.7463 -506.148 170.818 908.579 618.905 456.519" stroke="#4157FF" stroke-width="0.5403" stroke-miterlimit="10" stroke-linecap="round" stroke-linejoin="round"/>
<path d="M-659.181 430.914C-42.7086 -523.967 193.696 896.151 622.102 480.478" stroke="#4157FF" stroke-width="0.5161" stroke-miterlimit="10" stroke-linecap="round" stroke-linejoin="round"/>
<path d="M-658.197 449.482C-29.6705 -541.785 216.574 883.872 625.301 504.585" stroke="#4157FF" stroke-width="0.4919" stroke-miterlimit="10" stroke-linecap="round" stroke-linejoin="round"/>
<path d="M-657.213 467.899C-16.5098 -559.604 239.575 871.444 628.498 528.543" stroke="#4157FF" stroke-width="0.4677" stroke-miterlimit="10" stroke-linecap="round" stroke-linejoin="round"/>
<path d="M-656.352 486.317C-3.47186 -577.423 262.452 859.016 631.573 552.502" stroke="#4157FF" stroke-width="0.4435" stroke-miterlimit="10" stroke-linecap="round" stroke-linejoin="round"/>
<path d="M-655.368 504.735C9.56551 -595.392 285.33 846.438 634.894 576.31" stroke="#4157FF" stroke-width="0.4194" stroke-miterlimit="10" stroke-linecap="round" stroke-linejoin="round"/>
<path d="M-654.384 523.303C22.7268 -613.061 308.331 834.159 638.092 600.418" stroke="#4157FF" stroke-width="0.3952" stroke-miterlimit="10" stroke-linecap="round" stroke-linejoin="round"/>
<path d="M-653.523 541.72C35.7646 -630.88 331.209 821.731 641.29 624.376" stroke="#4157FF" stroke-width="0.371" stroke-miterlimit="10" stroke-linecap="round" stroke-linejoin="round"/>
<path d="M-652.539 560.138C48.8024 -648.848 354.087 809.303 644.488 648.334" stroke="#4157FF" stroke-width="0.3468" stroke-miterlimit="10" stroke-linecap="round" stroke-linejoin="round"/>
<path d="M-651.555 578.706C61.9638 -666.517 377.088 797.024 647.686 672.442" stroke="#4157FF" stroke-width="0.3226" stroke-miterlimit="10" stroke-linecap="round" stroke-linejoin="round"/>
<path d="M-650.694 597.123C75.0012 -684.486 399.965 784.596 650.761 696.25" stroke="#4157FF" stroke-width="0.2984" stroke-miterlimit="10" stroke-linecap="round" stroke-linejoin="round"/>
<path d="M-649.71 615.541C88.039 -702.305 422.843 772.168 654.082 720.208" stroke="#4157FF" stroke-width="0.2742" stroke-miterlimit="10" stroke-linecap="round" stroke-linejoin="round"/>
<path d="M-648.726 633.959C101.2 -720.124 445.844 759.739 657.28 744.166" stroke="#4157FF" stroke-width="0.25" stroke-miterlimit="10" stroke-linecap="round" stroke-linejoin="round"/>
<path d="M535.264 579.454C32.3205 878.033 -30.6552 339.424 -532.861 585.594" stroke="#4157FF" stroke-width="2.4839" stroke-miterlimit="10" stroke-linecap="round" stroke-linejoin="round" stroke-dasharray="1 1"/>
<path d="M536.74 565.828C21.4966 879.38 -46.153 325.049 -533.968 560.438" stroke="#4157FF" stroke-width="2.4194" stroke-miterlimit="10" stroke-linecap="round" stroke-linejoin="round" stroke-dasharray="1 1"/>
<path d="M538.094 552.202C10.673 880.728 -61.6506 310.674 -535.198 535.432" stroke="#4157FF" stroke-width="2.3548" stroke-miterlimit="10" stroke-linecap="round" stroke-linejoin="round" stroke-dasharray="1 1"/>
<path d="M539.57 538.576C-0.15117 881.926 -77.1488 296.3 -536.428 510.425" stroke="#4157FF" stroke-width="2.2903" stroke-miterlimit="10" stroke-linecap="round" stroke-linejoin="round" stroke-dasharray="1 1"/>
<path d="M540.923 524.95C-11.0979 883.423 -92.6464 281.925 -537.535 485.269" stroke="#4157FF" stroke-width="2.2258" stroke-miterlimit="10" stroke-linecap="round" stroke-linejoin="round" stroke-dasharray="1 1"/>
<path d="M542.398 511.174C-21.7991 884.471 -108.145 267.4 -538.765 460.113" stroke="#4157FF" stroke-width="2.1613" stroke-miterlimit="10" stroke-linecap="round" stroke-linejoin="round" stroke-dasharray="1 1"/>
<path d="M543.874 497.548C-32.6231 885.819 -123.643 253.025 -539.872 435.107" stroke="#4157FF" stroke-width="2.0968" stroke-miterlimit="10" stroke-linecap="round" stroke-linejoin="round" stroke-dasharray="1 1"/>
<path d="M545.227 483.921C-43.5701 887.166 -139.141 238.65 -541.102 409.951" stroke="#4157FF" stroke-width="2.0323" stroke-miterlimit="10" stroke-linecap="round" stroke-linejoin="round" stroke-dasharray="1 1"/>
<path d="M546.704 470.295C-54.3937 888.514 -154.638 224.126 -542.209 384.795" stroke="#4157FF" stroke-width="1.9677" stroke-miterlimit="10" stroke-linecap="round" stroke-linejoin="round" stroke-dasharray="1 1"/>
<path d="M548.179 456.519C-65.2178 889.712 -170.136 209.751 -543.316 359.789" stroke="#4157FF" stroke-width="1.9032" stroke-miterlimit="10" stroke-linecap="round" stroke-linejoin="round" stroke-dasharray="1 1"/>
<path d="M549.532 442.893C-76.042 891.06 -185.511 195.376 -544.546 334.632" stroke="#4157FF" stroke-width="1.8387" stroke-miterlimit="10" stroke-linecap="round" stroke-linejoin="round" stroke-dasharray="1 1"/>
<path d="M551.008 429.267C-86.8658 892.407 -201.009 181.001 -545.653 309.626" stroke="#4157FF" stroke-width="1.7742" stroke-miterlimit="10" stroke-linecap="round" stroke-linejoin="round" stroke-dasharray="1 1"/>
<path d="M552.484 415.641C-97.5665 893.755 -216.507 166.476 -546.76 284.47" stroke="#4157FF" stroke-width="1.7097" stroke-miterlimit="10" stroke-linecap="round" stroke-linejoin="round" stroke-dasharray="1 1"/>
<path d="M553.838 401.865C-108.513 894.953 -232.004 152.102 -547.99 259.314" stroke="#4157FF" stroke-width="1.6452" stroke-miterlimit="10" stroke-linecap="round" stroke-linejoin="round" stroke-dasharray="1 1"/>
<path d="M555.314 388.239C-119.337 896.151 -247.503 137.577 -549.22 234.158" stroke="#4157FF" stroke-width="1.5806" stroke-miterlimit="10" stroke-linecap="round" stroke-linejoin="round" stroke-dasharray="1 1"/>
<path d="M556.666 374.613C-130.161 897.498 -263.001 123.202 -550.327 209.152" stroke="#4157FF" stroke-width="1.5161" stroke-miterlimit="10" stroke-linecap="round" stroke-linejoin="round" stroke-dasharray="1 1"/>
<path d="M558.143 360.986C-140.985 898.846 -278.498 108.827 -551.557 184.146" stroke="#4157FF" stroke-width="1.4516" stroke-miterlimit="10" stroke-linecap="round" stroke-linejoin="round" stroke-dasharray="1 1"/>
<path d="M559.618 347.36C-151.81 900.194 -293.997 94.4524 -552.664 158.99" stroke="#4157FF" stroke-width="1.3871" stroke-miterlimit="10" stroke-linecap="round" stroke-linejoin="round" stroke-dasharray="1 1"/>
<path d="M560.971 333.584C-162.633 901.392 -309.494 80.0776 -553.894 133.834" stroke="#4157FF" stroke-width="1.3226" stroke-miterlimit="10" stroke-linecap="round" stroke-linejoin="round" stroke-dasharray="1 1"/>
<path d="M562.447 319.958C-173.457 902.739 -324.992 65.5531 -555.001 108.827" stroke="#4157FF" stroke-width="1.2581" stroke-miterlimit="10" stroke-linecap="round" stroke-linejoin="round" stroke-dasharray="1 1"/>
<path d="M563.923 306.332C-184.281 904.087 -340.491 51.1782 -556.231 83.6714" stroke="#4157FF" stroke-width="1.1935" stroke-miterlimit="10" stroke-linecap="round" stroke-linejoin="round" stroke-dasharray="1 1"/>
<path d="M565.276 292.706C-195.105 905.435 -355.988 36.8033 -557.338 58.6651" stroke="#4157FF" stroke-width="1.129" stroke-miterlimit="10" stroke-linecap="round" stroke-linejoin="round" stroke-dasharray="1 1"/>
<path d="M566.752 278.93C-205.929 906.633 -371.363 22.2786 -558.568 33.3593" stroke="#4157FF" stroke-width="1.0645" stroke-miterlimit="10" stroke-linecap="round" stroke-linejoin="round" stroke-dasharray="1 1"/>
<path d="M568.105 265.304C-216.876 907.98 -386.984 7.90368 -559.798 8.35289" stroke="#4157FF" stroke-miterlimit="10" stroke-linecap="round" stroke-linejoin="round" stroke-dasharray="1 1"/>
</g>
</svg>
